<mxfile host="Electron" agent="Mozilla/5.0 (Macintosh; Intel Mac OS X 10_15_7) AppleWebKit/537.36 (KHTML, like Gecko) draw.io/25.0.2 Chrome/128.0.6613.186 Electron/32.2.5 Safari/537.36" version="25.0.2">
  <diagram name="Page-1" id="sACGFY9avKEEaU6WIu58">
    <mxGraphModel dx="1114" dy="728" grid="1" gridSize="10" guides="1" tooltips="1" connect="1" arrows="1" fold="1" page="1" pageScale="1" pageWidth="850" pageHeight="1100" math="0" shadow="0">
      <root>
        <mxCell id="0" />
        <mxCell id="1" parent="0" />
        <mxCell id="9Bxk_xTMYeKFfSBjm5Vp-2" style="edgeStyle=orthogonalEdgeStyle;rounded=0;orthogonalLoop=1;jettySize=auto;html=1;" edge="1" parent="1" source="BVL4aWfITr0X4t9vTMms-1" target="9Bxk_xTMYeKFfSBjm5Vp-1">
          <mxGeometry relative="1" as="geometry" />
        </mxCell>
        <mxCell id="BVL4aWfITr0X4t9vTMms-1" value="Loss &lt;b&gt;Function&lt;/b&gt;" style="rounded=1;whiteSpace=wrap;html=1;" parent="1" vertex="1">
          <mxGeometry x="210" y="300" width="120" height="60" as="geometry" />
        </mxCell>
        <mxCell id="9Bxk_xTMYeKFfSBjm5Vp-4" value="" style="edgeStyle=orthogonalEdgeStyle;rounded=0;orthogonalLoop=1;jettySize=auto;html=1;" edge="1" parent="1" source="9Bxk_xTMYeKFfSBjm5Vp-1" target="9Bxk_xTMYeKFfSBjm5Vp-3">
          <mxGeometry relative="1" as="geometry" />
        </mxCell>
        <mxCell id="9Bxk_xTMYeKFfSBjm5Vp-1" value="Calculate &lt;b&gt;Gradient&lt;/b&gt; of the &lt;b&gt;Function&lt;/b&gt;&lt;br&gt;&lt;font style=&quot;font-size: 8px;&quot;&gt;This represent the &lt;i&gt;&lt;b&gt;increasing&lt;/b&gt;&lt;/i&gt; trend of the function&lt;/font&gt;" style="rounded=1;whiteSpace=wrap;html=1;" vertex="1" parent="1">
          <mxGeometry x="440" y="280" width="200" height="100" as="geometry" />
        </mxCell>
        <mxCell id="9Bxk_xTMYeKFfSBjm5Vp-6" value="" style="edgeStyle=orthogonalEdgeStyle;rounded=0;orthogonalLoop=1;jettySize=auto;html=1;" edge="1" parent="1" source="9Bxk_xTMYeKFfSBjm5Vp-3" target="9Bxk_xTMYeKFfSBjm5Vp-5">
          <mxGeometry relative="1" as="geometry" />
        </mxCell>
        <mxCell id="9Bxk_xTMYeKFfSBjm5Vp-3" value="Pick the Opposite of the Gradient&lt;div&gt;-&amp;gt; Gradient Descent&lt;/div&gt;&lt;div&gt;&lt;font style=&quot;font-size: 8px;&quot;&gt;This represent the &lt;b&gt;&lt;i&gt;decreasing&lt;/i&gt;&lt;/b&gt; trend of the function&lt;/font&gt;&lt;/div&gt;" style="whiteSpace=wrap;html=1;rounded=1;" vertex="1" parent="1">
          <mxGeometry x="440" y="450" width="200" height="100" as="geometry" />
        </mxCell>
        <mxCell id="9Bxk_xTMYeKFfSBjm5Vp-5" value="Take Steps to send the change signal across the neural network&amp;nbsp;&lt;div&gt;-&amp;gt; Backpropagation&lt;/div&gt;" style="whiteSpace=wrap;html=1;rounded=1;" vertex="1" parent="1">
          <mxGeometry x="440" y="650" width="200" height="100" as="geometry" />
        </mxCell>
        <mxCell id="9Bxk_xTMYeKFfSBjm5Vp-7" value="Minimize the loss" style="edgeStyle=orthogonalEdgeStyle;rounded=0;orthogonalLoop=1;jettySize=auto;html=1;entryX=0;entryY=0.5;entryDx=0;entryDy=0;" edge="1" parent="1" source="BVL4aWfITr0X4t9vTMms-1" target="9Bxk_xTMYeKFfSBjm5Vp-5">
          <mxGeometry relative="1" as="geometry">
            <Array as="points">
              <mxPoint x="270" y="700" />
            </Array>
          </mxGeometry>
        </mxCell>
      </root>
    </mxGraphModel>
  </diagram>
</mxfile>
